<svg width="300" height="300" viewBox="0 0 300 300" fill="none" xmlns="http://www.w3.org/2000/svg">
<path d="M174.372 257.452C173.762 258.691 174.272 260.189 175.51 260.799C176.749 261.409 178.248 260.9 178.858 259.661L174.372 257.452ZM127.844 229C126.157 227.154 126.156 227.155 126.155 227.156C126.155 227.156 126.154 227.157 126.153 227.158C126.152 227.159 126.15 227.161 126.149 227.162C126.145 227.166 126.141 227.169 126.137 227.173C126.128 227.181 126.118 227.191 126.106 227.202C126.082 227.225 126.051 227.254 126.014 227.29C125.941 227.362 125.843 227.461 125.727 227.584C125.496 227.829 125.188 228.178 124.855 228.615C124.2 229.474 123.383 230.757 122.903 232.339C122.415 233.951 122.269 235.913 123.046 237.983C123.818 240.041 125.403 241.943 127.898 243.632L130.701 239.491C128.828 238.224 128.047 237.079 127.727 236.227C127.412 235.388 127.449 234.578 127.688 233.789C127.937 232.969 128.393 232.221 128.83 231.648C129.043 231.369 129.235 231.152 129.368 231.011C129.435 230.94 129.485 230.89 129.514 230.862C129.528 230.848 129.537 230.839 129.54 230.836C129.541 230.835 129.541 230.835 129.54 230.837C129.539 230.837 129.538 230.839 129.536 230.84C129.535 230.841 129.534 230.842 129.533 230.843C129.533 230.843 129.532 230.844 129.532 230.844C129.531 230.845 129.53 230.846 127.844 229ZM127.898 243.632C130.713 245.537 134.755 246.137 138.832 246.266C143.016 246.398 147.771 246.037 152.364 245.622C157.023 245.2 161.487 244.726 165.325 244.579C167.234 244.506 168.914 244.518 170.323 244.647C171.76 244.779 172.756 245.02 173.384 245.309L175.479 240.769C174.105 240.135 172.462 239.822 170.779 239.668C169.069 239.511 167.15 239.506 165.134 239.583C161.125 239.736 156.444 240.232 151.913 240.642C147.316 241.058 142.836 241.39 138.99 241.268C135.036 241.143 132.254 240.542 130.701 239.491L127.898 243.632ZM173.384 245.309C174.745 245.937 175.43 246.835 175.795 247.862C176.192 248.976 176.246 250.359 176.048 251.854C175.851 253.327 175.432 254.738 175.048 255.803C174.858 256.329 174.682 256.756 174.557 257.045C174.494 257.19 174.444 257.299 174.412 257.369C174.396 257.403 174.384 257.428 174.377 257.442C174.374 257.449 174.371 257.454 174.371 257.455C174.37 257.456 174.37 257.456 174.37 257.456C174.371 257.456 174.371 257.455 174.371 257.454C174.371 257.454 174.372 257.454 174.372 257.453C174.372 257.453 174.372 257.452 176.615 258.557C178.858 259.661 178.858 259.66 178.859 259.66C178.859 259.659 178.859 259.658 178.859 259.658C178.86 259.656 178.861 259.655 178.862 259.653C178.863 259.65 178.865 259.646 178.868 259.641C178.873 259.631 178.879 259.618 178.886 259.603C178.901 259.572 178.921 259.53 178.945 259.477C178.994 259.372 179.062 259.224 179.143 259.038C179.304 258.666 179.52 258.14 179.751 257.5C180.209 256.233 180.745 254.457 181.004 252.513C181.26 250.59 181.269 248.326 180.505 246.184C179.711 243.954 178.121 241.989 175.479 240.769L173.384 245.309Z" fill="#00AEEF"/>
<path d="M150.318 170.365L112.465 136.375L150.318 136.375L186.714 136.375L150.318 170.365Z" fill="#00AEEF"/>
<path d="M150.318 249.862L147.486 249.862L145.95 165.931L150.318 170.364L154.685 165.931L153.149 249.862L150.318 249.862Z" fill="#00AEEF"/>
<path d="M150.318 247.212L169.244 264.946H150.318H131.391L150.318 247.212Z" fill="#00AEEF"/>
<path d="M268.454 261.357C265.064 264.798 258.362 266.252 248.305 264.805C238.414 263.381 225.979 259.242 212.002 252.532C184.071 239.125 150.404 215.659 119.315 184.101C88.2273 152.544 65.6847 118.952 53.0487 91.1913C46.7255 77.2993 42.9316 64.9734 41.7377 55.1595C40.5263 45.2011 42.0615 38.4963 45.484 35.0222C48.8196 31.6362 54.8092 30.5388 63.8174 32.5803C72.7104 34.5957 83.843 39.5325 96.5486 47.0766C121.927 62.1452 153.06 87.3016 184.232 118.943C215.403 150.585 240.576 182.585 255.81 208.746C263.437 221.843 268.496 233.347 270.624 242.529C272.784 251.849 271.765 257.996 268.454 261.357Z" stroke="#00AEEF" stroke-width="5"/>
<path d="M253.06 34.1894C256.523 37.7046 258.236 44.4699 257.352 54.4238C256.479 64.2446 253.121 76.5762 247.242 90.4676C235.492 118.23 213.846 151.823 182.776 183.362C151.704 214.902 117.162 238.345 88.344 251.733C73.9247 258.432 61.04 262.567 50.8066 263.985C40.383 265.429 33.4727 263.958 30.0902 260.524C26.7932 257.178 25.8416 251.147 28.1236 241.983C30.3731 232.949 35.5958 221.641 43.3947 208.734C58.9709 182.956 84.4903 151.338 115.676 119.682C146.861 88.0259 177.665 62.4706 202.714 47.0076C215.255 39.2654 226.219 34.1384 234.983 31.9828C243.858 29.8 249.742 30.8208 253.06 34.1894Z" stroke="#00AEEF" stroke-width="5"/>
</svg>
