<svg width="24" height="24" viewBox="0 0 24 24" fill="none" xmlns="http://www.w3.org/2000/svg">
    <path d="M15.07 2H8.93C3.33 2 2 3.33 2 8.93V15.07C2 20.67 3.33 22 8.93 22H15.07C20.67 22 22 20.67 22 15.07V8.93C22 3.33 20.67 2 15.07 2ZM18.24 16.23H16.67C16.07 16.23 15.88 15.73 14.83 14.68C13.9 13.82 13.53 13.69 13.29 13.69C12.94 13.69 12.84 13.79 12.84 14.27V15.62C12.84 15.99 12.71 16.23 11.64 16.23C10.1458 16.1658 8.71871 15.6314 7.53451 14.6964C6.35032 13.7614 5.46134 12.4662 4.97 11C4.97 10.89 4.89 10.78 4.89 10.67C4.89 10.46 4.97 10.34 5.18 10.34H6.75C7.14 10.34 7.29 10.5 7.44 10.86C8.1 12.61 9.34 14.15 9.86 14.15C10.06 14.15 10.16 14.05 10.16 13.5V11.41C10.1 10.45 9.58 10.36 9.58 9.99C9.58 9.83 9.71 9.67 9.93 9.67H12.31C12.64 9.67 12.77 9.83 12.77 10.19V13.08C12.77 13.41 12.94 13.54 13.06 13.54C13.26 13.54 13.43 13.41 13.74 13.1C14.67 12.08 15.35 10.57 15.35 10.57C15.45 10.36 15.63 10.17 16.02 10.17H17.59C18.03 10.17 18.13 10.4 18.03 10.73C17.82 11.5 16.35 13.64 16.35 13.64C16.19 13.9 16.14 14.01 16.35 14.28C16.5 14.47 17.05 14.96 17.41 15.37C17.9944 15.9542 18.4779 16.6338 18.84 17.38C18.94 17.76 18.74 17.99 18.24 17.99V16.23Z" fill="white"/>
</svg> 